# WaveFront *.obj file (generated by Autodesk ATF)

mtllib 6096c095-9cd1-4586-8699-08ece0650acc.mtl

g Body1

v 16.500000 7.000000 0.000000
v 16.500000 10.000000 0.000000
v 16.500000 10.000000 2.688507
v 16.500000 7.000000 2.688507
v 20.500000 7.000000 0.000000
v 20.500000 7.000000 2.688507
v 20.500000 10.000000 0.000000
v 20.500000 10.000000 2.688507
v 1.500000 7.000000 0.000000
v 1.500000 10.000000 0.000000
v 1.500000 10.000000 2.688507
v 1.500000 7.000000 2.688507
v 5.500000 7.000000 0.000000
v 5.500000 7.000000 2.688507
v 5.500000 10.000000 0.000000
v 5.500000 10.000000 2.688507
v 8.000000 0.000000 0.000000
v 8.000000 10.000000 0.000000
v 8.000000 10.000000 2.688507
v 8.000000 0.000000 2.688507
v 14.000000 10.000000 0.000000
v 14.000000 0.000000 0.000000
v 14.000000 0.000000 2.688507
v 14.000000 10.000000 2.688507
v 21.986312 0.000000 0.000000
v 21.986312 0.000000 2.688507
v 0.000000 0.000000 2.688507
v 0.000000 0.000000 0.000000
v 21.986312 21.000000 2.688507
v 0.000000 21.000000 2.688507
v 0.000000 21.000000 0.000000
v 21.986312 21.000000 0.000000
vt -0.000000 0.268851 0.000000
vt -0.300000 0.268851 0.000000
vt -0.000000 0.000000 0.000000
vt -0.300000 0.000000 0.000000
vt -0.000000 0.268851 0.000000
vt -0.400000 0.268851 0.000000
vt -0.000000 0.000000 0.000000
vt -0.400000 0.000000 0.000000
vt -0.000000 0.268851 0.000000
vt -0.300000 0.268851 0.000000
vt -0.000000 0.000000 0.000000
vt -0.300000 0.000000 0.000000
vt -0.000000 0.268851 0.000000
vt -0.400000 0.268851 0.000000
vt -0.000000 0.000000 0.000000
vt -0.400000 0.000000 0.000000
vt -0.000000 0.268851 0.000000
vt -0.300000 0.268851 0.000000
vt -0.000000 0.000000 0.000000
vt -0.300000 0.000000 0.000000
vt -0.000000 0.268851 0.000000
vt -0.400000 0.268851 0.000000
vt -0.000000 0.000000 0.000000
vt -0.400000 0.000000 0.000000
vt -0.000000 0.268851 0.000000
vt -0.300000 0.268851 0.000000
vt -0.000000 0.000000 0.000000
vt -0.300000 0.000000 0.000000
vt -0.000000 0.268851 0.000000
vt -0.400000 0.268851 0.000000
vt -0.000000 0.000000 0.000000
vt -0.400000 0.000000 0.000000
vt -0.000000 0.268851 0.000000
vt -1.000000 0.268851 0.000000
vt -0.000000 0.000000 0.000000
vt -1.000000 0.000000 0.000000
vt -0.000000 0.268851 0.000000
vt -1.000000 0.268851 0.000000
vt 0.000000 0.000000 0.000000
vt -1.000000 0.000000 0.000000
vt -0.000000 0.268851 0.000000
vt -0.600000 0.268851 0.000000
vt -0.000000 0.000000 0.000000
vt -0.600000 0.000000 0.000000
vt -0.300684 0.134425 0.000000
vt -1.099316 0.134425 0.000000
vt -0.300684 -0.134425 0.000000
vt -1.099316 -0.134425 0.000000
vt 0.299316 -0.134425 0.000000
vt 1.099316 -0.134425 0.000000
vt 0.299316 0.134425 0.000000
vt 1.099316 0.134425 0.000000
vt 2.050000 0.700000 0.000000
vt 2.198631 0.000000 0.000000
vt 2.050000 1.000000 0.000000
vt 2.198631 2.100000 0.000000
vt 1.650000 1.000000 0.000000
vt 1.400000 1.000000 0.000000
vt 1.650000 0.700000 0.000000
vt 1.400000 0.000000 0.000000
vt 0.550000 0.700000 0.000000
vt 0.800000 1.000000 0.000000
vt 0.550000 1.000000 0.000000
vt 0.000000 2.100000 0.000000
vt 0.150000 1.000000 0.000000
vt 0.000000 0.000000 0.000000
vt 0.150000 0.700000 0.000000
vt 0.800000 0.000000 0.000000
vt 0.000000 0.000000 0.000000
vt 0.268851 0.000000 0.000000
vt 0.000000 2.100000 0.000000
vt 0.268851 2.100000 0.000000
vt 0.548631 0.700000 0.000000
vt 0.148631 0.700000 0.000000
vt -0.000000 0.000000 0.000000
vt 0.148631 1.000000 0.000000
vt -0.000000 2.100000 0.000000
vt 0.548631 1.000000 0.000000
vt 0.798631 1.000000 0.000000
vt 0.798631 0.000000 0.000000
vt 1.648631 1.000000 0.000000
vt 1.398631 1.000000 0.000000
vt 1.648631 0.700000 0.000000
vt 1.398631 0.000000 0.000000
vt 2.198631 0.000000 0.000000
vt 2.198631 2.100000 0.000000
vt 2.048631 1.000000 0.000000
vt 2.048631 0.700000 0.000000
vt -0.000000 0.000000 0.000000
vt 0.268851 0.000000 0.000000
vt -0.000000 2.100000 0.000000
vt 0.268851 2.100000 0.000000
vt 0.134425 1.099316 0.000000
vt -0.134425 1.099316 0.000000
vt 0.134425 -1.099316 0.000000
vt -0.134425 -1.099316 0.000000
vn 0.100000 0.000000 0.000000
vn 0.100000 0.000000 0.000000
vn 0.100000 0.000000 0.000000
vn 0.100000 0.000000 0.000000
vn 0.000000 0.100000 0.000000
vn 0.000000 0.100000 0.000000
vn 0.000000 0.100000 0.000000
vn 0.000000 0.100000 0.000000
vn -0.100000 0.000000 0.000000
vn -0.100000 0.000000 0.000000
vn -0.100000 0.000000 0.000000
vn -0.100000 0.000000 0.000000
vn 0.000000 -0.100000 0.000000
vn 0.000000 -0.100000 0.000000
vn 0.000000 -0.100000 0.000000
vn 0.000000 -0.100000 0.000000
vn 0.100000 0.000000 0.000000
vn 0.100000 0.000000 0.000000
vn 0.100000 0.000000 0.000000
vn 0.100000 0.000000 0.000000
vn 0.000000 0.100000 0.000000
vn 0.000000 0.100000 0.000000
vn 0.000000 0.100000 0.000000
vn 0.000000 0.100000 0.000000
vn -0.100000 0.000000 0.000000
vn -0.100000 0.000000 0.000000
vn -0.100000 0.000000 0.000000
vn -0.100000 0.000000 0.000000
vn 0.000000 -0.100000 0.000000
vn 0.000000 -0.100000 0.000000
vn 0.000000 -0.100000 0.000000
vn 0.000000 -0.100000 0.000000
vn 0.100000 0.000000 0.000000
vn 0.100000 0.000000 0.000000
vn 0.100000 0.000000 0.000000
vn 0.100000 0.000000 0.000000
vn -0.100000 0.000000 -0.000000
vn -0.100000 0.000000 -0.000000
vn -0.100000 0.000000 -0.000000
vn -0.100000 0.000000 -0.000000
vn 0.000000 -0.100000 0.000000
vn 0.000000 -0.100000 0.000000
vn 0.000000 -0.100000 0.000000
vn 0.000000 -0.100000 0.000000
vn 0.000000 -0.100000 0.000000
vn 0.000000 -0.100000 0.000000
vn 0.000000 -0.100000 0.000000
vn 0.000000 -0.100000 0.000000
vn 0.000000 -0.100000 0.000000
vn 0.000000 -0.100000 0.000000
vn 0.000000 -0.100000 0.000000
vn 0.000000 -0.100000 0.000000
vn 0.000000 -0.000000 0.100000
vn 0.000000 -0.000000 0.100000
vn 0.000000 -0.000000 0.100000
vn 0.000000 -0.000000 0.100000
vn 0.000000 -0.000000 0.100000
vn 0.000000 -0.000000 0.100000
vn 0.000000 -0.000000 0.100000
vn 0.000000 -0.000000 0.100000
vn 0.000000 -0.000000 0.100000
vn 0.000000 -0.000000 0.100000
vn 0.000000 -0.000000 0.100000
vn 0.000000 -0.000000 0.100000
vn 0.000000 -0.000000 0.100000
vn 0.000000 -0.000000 0.100000
vn 0.000000 -0.000000 0.100000
vn 0.000000 -0.000000 0.100000
vn -0.100000 0.000000 0.000000
vn -0.100000 0.000000 0.000000
vn -0.100000 0.000000 0.000000
vn -0.100000 0.000000 0.000000
vn 0.000000 0.000000 -0.100000
vn 0.000000 0.000000 -0.100000
vn 0.000000 0.000000 -0.100000
vn 0.000000 0.000000 -0.100000
vn 0.000000 0.000000 -0.100000
vn 0.000000 0.000000 -0.100000
vn 0.000000 0.000000 -0.100000
vn 0.000000 0.000000 -0.100000
vn 0.000000 0.000000 -0.100000
vn 0.000000 0.000000 -0.100000
vn 0.000000 0.000000 -0.100000
vn 0.000000 0.000000 -0.100000
vn 0.000000 0.000000 -0.100000
vn 0.000000 0.000000 -0.100000
vn 0.000000 0.000000 -0.100000
vn 0.000000 0.000000 -0.100000
vn 0.100000 0.000000 0.000000
vn 0.100000 0.000000 0.000000
vn 0.100000 0.000000 0.000000
vn 0.100000 0.000000 0.000000
vn 0.000000 0.100000 0.000000
vn 0.000000 0.100000 0.000000
vn 0.000000 0.100000 0.000000
vn 0.000000 0.100000 0.000000
usemtl Steel_-_Satin
f 1/1/1 2/2/2 4/3/3
f 4/3/3 2/2/2 3/4/4
f 5/5/5 1/6/6 6/7/7
f 6/7/7 1/6/6 4/8/8
f 7/9/9 5/10/10 8/11/11
f 8/11/11 5/10/10 6/12/12
f 2/13/13 7/14/14 3/15/15
f 3/15/15 7/14/14 8/16/16
f 9/17/17 10/18/18 12/19/19
f 12/19/19 10/18/18 11/20/20
f 13/21/21 9/22/22 14/23/23
f 14/23/23 9/22/22 12/24/24
f 15/25/25 13/26/26 16/27/27
f 16/27/27 13/26/26 14/28/28
f 10/29/29 15/30/30 11/31/31
f 11/31/31 15/30/30 16/32/32
f 17/33/33 18/34/34 20/35/35
f 20/35/35 18/34/34 19/36/36
f 21/37/37 22/38/38 24/39/39
f 24/39/39 22/38/38 23/40/40
f 18/41/41 21/42/42 19/43/43
f 19/43/43 21/42/42 24/44/44
f 22/45/45 25/46/46 23/47/47
f 23/47/47 25/46/46 26/48/48
f 20/49/49 27/50/50 17/51/51
f 17/51/51 27/50/50 28/52/52
f 6/53/53 26/54/54 8/55/55
f 8/55/55 26/54/54 29/56/56
f 8/55/55 29/56/56 3/57/57
f 3/57/57 29/56/56 24/58/58
f 3/57/57 24/58/58 4/59/59
f 4/59/59 24/58/58 23/60/60
f 4/59/59 23/60/60 26/54/54
f 6/53/53 4/59/59 26/54/54
f 14/61/61 19/62/62 16/63/63
f 16/63/63 19/62/62 30/64/64
f 16/63/63 30/64/64 11/65/65
f 11/65/65 30/64/64 27/66/66
f 11/65/65 27/66/66 12/67/67
f 12/67/67 27/66/66 14/61/61
f 14/61/61 27/66/66 20/68/68
f 14/61/61 20/68/68 19/62/62
f 30/64/64 19/62/62 29/56/56
f 29/56/56 19/62/62 24/58/58
f 28/69/69 27/70/70 31/71/71
f 31/71/71 27/70/70 30/72/72
f 1/73/73 5/74/74 25/75/75
f 25/75/75 5/74/74 7/76/76
f 25/75/75 7/76/76 32/77/77
f 32/77/77 7/76/76 2/78/78
f 32/77/77 2/78/78 21/79/79
f 21/79/79 2/78/78 1/73/73
f 21/79/79 1/73/73 22/80/80
f 22/80/80 1/73/73 25/75/75
f 15/81/81 18/82/82 13/83/83
f 13/83/83 18/82/82 17/84/84
f 13/83/83 17/84/84 28/85/85
f 18/82/82 15/81/81 31/86/86
f 31/86/86 15/81/81 10/87/87
f 31/86/86 10/87/87 28/85/85
f 28/85/85 10/87/87 9/88/88
f 28/85/85 9/88/88 13/83/83
f 31/86/86 32/77/77 18/82/82
f 18/82/82 32/77/77 21/79/79
f 26/89/89 25/90/90 29/91/91
f 29/91/91 25/90/90 32/92/92
f 29/93/93 32/94/94 30/95/95
f 30/95/95 32/94/94 31/96/96

# 32 vertices
# 96 texture params
# 96 normals
# 68 facets

# 1 groups
